<svg width="364" height="99" viewBox="0 0 364 99" fill="none" xmlns="http://www.w3.org/2000/svg">
<path d="M67.5841 40.6182L21.8199 39.9389C20.6464 39.9389 19.6406 38.9199 19.6406 37.5613C19.6406 36.3725 20.6464 35.3535 21.8199 35.3535L67.4164 36.2027C68.5899 36.2027 69.5957 37.2216 69.5957 38.5803C69.7633 39.5993 68.7575 40.6182 67.5841 40.6182Z" fill="#E21A2B"/>
<path d="M69.2646 56.0728C69.0969 56.0728 69.0969 56.0728 68.9293 56.0728L22.6622 49.4494C21.4888 49.2796 20.6506 48.0908 20.8182 46.902C20.9859 45.7132 22.1593 44.864 23.3328 45.0338L69.5998 51.6572C70.7733 51.827 71.6115 53.0158 71.4438 54.2046C71.4438 55.2236 70.438 56.0728 69.2646 56.0728Z" fill="#E21A2B"/>
<path d="M69.596 55.9029H69.4284C68.255 55.7331 67.2491 54.7141 67.4168 53.3555L68.9255 38.7501C69.0931 37.5613 70.0989 36.5424 71.44 36.7122C72.6134 36.882 73.6192 37.901 73.4516 39.2596L71.9429 53.865C71.6076 55.0538 70.7695 55.9029 69.596 55.9029Z" fill="#E21A2B"/>
<path d="M68.5897 40.6179C67.5839 40.6179 66.5781 39.9386 66.4104 38.7498C66.0752 37.561 66.9133 36.3722 68.0868 36.0325L111.336 26.1824C112.51 25.8427 113.683 26.6919 114.019 27.8807C114.354 29.0695 113.516 30.2583 112.342 30.598L69.0926 40.4481C68.925 40.6179 68.7573 40.6179 68.5897 40.6179Z" fill="#E21A2B"/>
<path d="M85.3552 97.5115C84.517 97.5115 83.6788 97.0021 83.1759 95.9831L67.083 53.6955C66.5801 52.5067 67.2506 51.148 68.4241 50.8084C69.5975 50.2989 70.9386 50.9782 71.2739 52.167L87.3668 94.4546C87.8697 95.6434 87.1991 97.0021 86.0257 97.3417C85.8581 97.3417 85.5228 97.5115 85.3552 97.5115Z" fill="#E21A2B"/>
<path d="M73.113 96.6624C72.1071 96.6624 71.269 96.1529 70.9337 95.1339L53.1645 44.6945C52.8292 43.5057 53.3321 42.147 54.5055 41.8074C55.679 41.2979 57.0201 41.9772 57.3553 43.166L75.1246 93.6055C75.6275 94.7943 74.9569 96.1529 73.7835 96.4926C73.6159 96.6624 73.4482 96.6624 73.113 96.6624Z" fill="#E21A2B"/>
<path d="M3.37874 54.3744C2.37294 54.3744 1.53476 53.695 1.1995 52.6761C0.864227 51.4873 1.7024 50.2984 2.87584 49.9588L22.3214 45.0337C23.4949 44.6941 24.836 45.5432 25.0036 46.732C25.3389 47.9208 24.5007 49.1096 23.3272 49.4493L4.04928 54.3744C3.88165 54.3744 3.54638 54.3744 3.37874 54.3744Z" fill="#E21A2B"/>
<path d="M23.8308 81.5473C23.1603 81.5473 22.4898 81.2077 21.9869 80.6982L1.7031 53.5254C1.03257 52.5064 1.2002 51.1478 2.20601 50.2987C3.21181 49.4495 4.55289 49.7892 5.39106 50.8081L25.8425 77.9809C26.513 78.9999 26.3454 80.3585 25.3396 81.2077C24.8367 81.3775 24.3338 81.5473 23.8308 81.5473Z" fill="#E21A2B"/>
<path d="M9.4179 98.0205C9.25026 98.0205 8.91499 98.0205 8.74736 97.8507C7.57392 97.511 6.90338 96.1524 7.23865 94.9636L22.3257 46.3923C22.661 45.2035 24.0021 44.5241 25.1755 44.8638C26.349 45.2035 27.0195 46.5621 26.6842 47.7509L11.5971 96.3222C11.2619 97.511 10.2561 98.0205 9.4179 98.0205Z" fill="#E21A2B"/>
<path d="M24.5008 49.6193C23.495 49.6193 22.6568 48.94 22.3215 47.921L11.4253 6.48254C11.09 5.29374 11.7606 4.10493 13.1016 3.76527C14.2751 3.42561 15.6161 4.10493 15.7838 5.46357L26.68 46.7322C27.0153 47.921 26.3447 49.2796 25.0037 49.4495C24.836 49.4495 24.6684 49.6193 24.5008 49.6193Z" fill="#E21A2B"/>
<path d="M36.0707 48.2607C35.2325 48.2607 34.2267 47.7512 33.8914 46.7322L18.1338 3.25577C17.6309 2.06696 18.3014 0.70832 19.4749 0.36866C20.6483 -0.140829 21.9894 0.53849 22.3246 1.7273L38.2499 45.3736C38.7528 46.5624 38.0823 47.921 36.9088 48.2607C36.5736 48.2607 36.4059 48.2607 36.0707 48.2607Z" fill="#E21A2B"/>
<path d="M2.2089 13.1069C1.37073 13.1069 0.53256 12.5974 0.197291 11.7483C-0.305612 10.5595 0.197291 9.20085 1.2031 8.69136L19.14 0.199875C20.3134 -0.309614 21.6545 0.199875 22.1574 1.21885C22.6603 2.40766 22.1574 3.7663 21.1516 4.27579L3.21471 12.7673C2.87944 13.1069 2.54417 13.1069 2.2089 13.1069Z" fill="#E21A2B"/>
<g clip-path="url(#clip0)">
<path d="M139.146 34.5771H137.606C137.746 33.5972 137.746 32.0573 137.746 30.0975C137.746 29.1176 137.746 27.9976 137.746 26.5978C137.606 27.1577 136.486 28.5576 134.666 30.7974C132.987 32.7572 132.007 34.1571 132.007 34.5771H130.887C131.027 33.1772 131.027 31.4974 131.027 29.5375C131.027 27.5777 131.027 25.7578 130.887 23.938H132.427C132.427 25.4779 132.287 27.0177 132.287 28.9776C132.287 29.9575 132.287 30.9374 132.147 32.0573H132.287C132.567 31.4974 133.546 30.0975 135.366 27.8577C137.186 25.8978 138.026 24.4979 138.026 23.938H139.146C139.006 25.7578 139.006 27.5777 139.006 29.5375C139.146 31.4974 139.146 33.1772 139.146 34.5771Z" fill="black"/>
<path d="M150.21 34.5771H148.67C148.67 32.6173 148.81 30.9374 148.81 29.5375H143.77C143.77 30.7974 143.77 32.4773 143.91 34.5771H142.23C142.37 32.6173 142.37 30.6574 142.37 28.9776C142.37 27.1577 142.37 25.4779 142.23 23.938H143.77C143.77 25.4779 143.63 27.0177 143.63 28.5576H148.53C148.53 27.4377 148.53 25.8978 148.39 23.938H149.93C149.79 25.4779 149.79 27.1577 149.79 28.9776C150.07 31.0774 150.07 32.8972 150.21 34.5771Z" fill="black"/>
<path d="M160.425 33.3173L160.285 34.5772C159.585 34.7172 158.885 34.8572 158.045 34.8572C156.225 34.8572 154.685 34.2972 153.845 33.3173C153.005 32.3374 152.445 31.0775 152.445 29.5376C152.445 27.9977 153.005 26.5979 153.985 25.478C154.965 24.358 156.505 23.7981 158.185 23.7981C158.745 23.7981 159.165 23.9381 159.725 24.0781L159.445 25.338C158.885 25.198 158.325 25.058 157.765 25.058C156.505 25.058 155.385 25.478 154.685 26.3179C153.985 27.1578 153.985 28.1377 153.985 29.2576C153.985 30.5175 154.405 31.4974 155.105 32.3374C155.805 33.1773 156.925 33.5973 158.325 33.5973C158.885 33.7373 159.585 33.5973 160.425 33.3173Z" fill="black"/>
<path d="M169.245 23.938V25.0579C168.125 25.0579 167.005 24.9179 165.885 24.9179C165.885 26.0378 165.885 27.2977 165.885 28.9776C165.885 30.7974 165.885 32.6173 166.025 34.5771H164.485C164.485 32.7572 164.625 30.7974 164.625 28.9776C164.625 27.4377 164.625 26.0378 164.625 24.9179C163.785 24.9179 162.666 24.9179 161.266 25.0579V23.938H169.245Z" fill="black"/>
<path d="M179.322 34.5771H177.782C177.782 33.5972 177.922 32.0573 177.922 30.0975C177.922 29.1176 177.922 27.9976 177.922 26.5978H177.782C177.642 27.1577 176.522 28.5576 174.702 30.7974C173.022 32.7572 172.182 34.1571 172.182 34.5771H171.062C171.202 33.1772 171.202 31.4974 171.202 29.5375C171.202 27.5777 171.202 25.7578 171.062 23.938H172.602C172.462 25.4779 172.462 27.0177 172.462 28.9776C172.462 29.9575 172.462 30.9374 172.322 32.0573H172.462C172.742 31.4974 173.722 30.0975 175.542 27.8577C177.222 25.8978 178.062 24.4979 178.062 23.938H179.182C179.182 25.7578 179.182 27.5777 179.182 29.5375C179.182 31.4974 179.182 33.1772 179.322 34.5771Z" fill="black"/>
<path d="M189.264 23.938V25.0579C188.145 25.0579 187.025 24.9179 185.905 24.9179C185.905 26.0378 185.905 27.2977 185.905 28.9776C185.905 30.7974 185.905 32.6173 186.045 34.5771H184.505C184.505 32.7572 184.645 30.7974 184.645 28.9776C184.645 27.4377 184.645 26.0378 184.645 24.9179C183.805 24.9179 182.685 24.9179 181.285 25.0579V23.938H189.264Z" fill="black"/>
<path d="M198.083 23.938C198.083 24.218 197.663 25.3379 196.963 27.1577C196.263 28.9776 195.423 30.5174 194.723 31.7773C194.023 33.0372 193.463 33.7372 192.763 34.1571C192.063 34.5771 191.223 34.8571 190.244 34.8571V33.7372C191.223 33.7372 191.923 33.5972 192.343 33.3172C192.763 33.0372 193.183 32.4773 193.603 31.6373C193.603 31.2174 192.903 29.8175 191.643 27.5777C190.384 25.3379 189.684 24.078 189.684 23.938H191.363C191.363 24.078 191.923 25.0579 192.903 27.0177C193.883 28.9776 194.443 29.9575 194.443 30.2375H194.583C196.123 26.8777 196.823 24.7779 196.823 24.078H198.083V23.938Z" fill="black"/>
<path d="M206.343 23.938V25.0579C205.223 25.0579 204.103 24.9179 202.983 24.9179C202.983 26.0378 202.983 27.2977 202.983 28.9776C202.983 30.7974 202.983 32.6173 203.123 34.5771H201.583C201.583 32.7572 201.723 30.7974 201.723 28.9776C201.723 27.4377 201.723 26.0378 201.723 24.9179C200.883 24.9179 199.763 24.9179 198.363 25.0579V23.938H206.343Z" fill="black"/>
<path d="M220.059 34.5771H218.52C218.66 33.5972 218.66 32.0573 218.66 29.9575C218.66 28.9776 218.66 27.8577 218.66 26.4578H218.52C218.38 27.0177 217.26 28.4176 215.44 30.6574C213.76 32.7572 212.78 34.0171 212.78 34.5771H211.66C211.8 33.1772 211.8 31.4974 211.8 29.5375C211.8 27.5777 211.8 25.7578 211.66 23.938H213.2C213.06 25.4779 213.06 27.0177 213.06 28.9776C213.06 29.9575 213.06 30.9374 212.92 32.0573H213.06C213.34 31.4974 214.32 30.0975 216.14 27.8577C217.82 25.8978 218.66 24.4979 218.66 23.938H219.779C219.639 25.7578 219.639 27.5777 219.639 29.5375C219.919 31.4974 219.919 33.1772 220.059 34.5771Z" fill="black"/>
<path d="M229.72 31.4974C229.72 32.4774 229.3 33.3173 228.6 34.0172C227.9 34.7172 226.78 34.8572 225.52 34.8572C224.12 34.8572 223 34.7172 222.16 34.2972L222.3 33.0373C223.42 33.4573 224.4 33.7373 225.52 33.7373C227.34 33.7373 228.32 33.0373 228.32 31.6374C228.32 30.9375 228.04 30.3775 227.34 30.0976C226.64 29.8176 225.94 29.6776 224.82 29.6776C224.4 29.6776 223.98 29.6776 223.56 29.6776L223.7 28.4177C223.98 28.4177 224.4 28.4177 224.96 28.4177C226.78 28.4177 227.62 27.8578 227.62 26.5979C227.62 25.478 226.78 24.918 225.1 24.918C223.98 24.918 223.14 25.058 222.3 25.478L222.44 24.2181C223.56 23.9381 224.54 23.7981 226.08 23.7981C227.2 23.7981 227.9 24.0781 228.46 24.498C229.02 24.918 229.3 25.478 229.3 26.1779C229.3 27.2978 228.74 28.1377 227.48 28.6977V28.8377C229.02 29.1176 229.72 29.9576 229.72 31.4974Z" fill="black"/>
<path d="M239.235 23.938C239.235 24.218 238.815 25.3379 238.115 27.1577C237.415 28.9776 236.575 30.6574 235.876 31.7773C235.176 32.8972 234.616 33.7372 233.916 34.1571C233.216 34.5771 232.376 34.8571 231.396 34.8571V33.7372C232.376 33.7372 233.076 33.5972 233.496 33.3172C233.916 33.0372 234.336 32.4773 234.756 31.6373C234.756 31.2174 234.056 29.8175 232.796 27.5777C231.536 25.3379 230.836 24.078 230.836 23.938H232.376C232.376 24.078 232.936 25.0579 233.916 27.0177C234.896 28.9776 235.456 29.9575 235.456 30.2375H235.596C237.135 26.8777 237.835 24.7779 237.835 24.078H239.235V23.938Z" fill="black"/>
<path d="M247.777 34.5771H246.238C246.378 33.1772 246.378 31.6373 246.378 29.8175C245.678 29.9575 244.698 30.0975 243.578 30.0975C242.458 30.0975 241.478 29.8175 240.918 29.3975C240.358 28.9776 240.078 27.8577 240.078 26.3178C240.078 25.6178 240.078 24.9179 240.078 24.078H241.618C241.478 24.7779 241.478 25.3379 241.478 25.8978C241.478 27.2977 241.618 28.2776 242.038 28.5576C242.458 28.8376 243.158 29.1176 244.278 29.1176C245.118 29.1176 245.818 28.9776 246.378 28.8376C246.378 27.0177 246.378 25.3379 246.238 23.938H247.777C247.637 25.4779 247.637 27.1577 247.637 28.9776C247.637 30.9374 247.777 32.8972 247.777 34.5771Z" fill="black"/>
<path d="M257.576 33.3172V34.5771H250.996C251.136 32.8972 251.136 31.0774 251.136 28.9776C251.136 27.0177 251.136 25.3379 250.996 23.938H257.156V25.1979C255.616 25.1979 254.076 25.0579 252.396 25.0579C252.396 25.8978 252.396 27.0177 252.396 28.5576C253.796 28.5576 255.196 28.5576 256.316 28.4176V29.6775C255.056 29.6775 253.796 29.5375 252.396 29.5375C252.396 30.9374 252.396 32.1973 252.536 33.4572C254.216 33.4572 255.896 33.4572 257.576 33.3172Z" fill="black"/>
<path d="M267.515 34.5771H265.975C265.975 32.7572 265.975 31.0774 265.975 29.5375H261.076C261.076 30.7974 261.076 32.4773 261.216 34.5771H259.676C259.816 32.6173 259.816 30.6574 259.816 28.9776C259.816 27.1577 259.816 25.4779 259.676 23.938H261.216C261.216 25.4779 261.076 27.0177 261.076 28.5576H265.975C265.975 27.4377 265.975 25.8978 265.835 23.938H267.375C267.375 25.4779 267.375 27.1577 267.375 28.9776C267.375 31.0774 267.375 32.8972 267.515 34.5771Z" fill="black"/>
<path d="M278.856 34.5771H277.316C277.456 33.5972 277.456 32.0573 277.456 29.9575C277.456 28.9776 277.456 27.8577 277.456 26.4578H277.316C277.176 27.0177 276.057 28.4176 274.237 30.6574C272.557 32.7572 271.577 34.0171 271.577 34.5771H270.457C270.597 33.1772 270.597 31.4974 270.597 29.5375C270.597 27.5777 270.597 25.7578 270.457 23.938H271.997C271.857 25.4779 271.857 27.0177 271.857 28.9776C271.857 29.9575 271.857 30.9374 271.717 32.0573H271.857C272.137 31.4974 273.117 30.0975 274.937 27.8577C276.617 25.8978 277.456 24.4979 277.456 23.938H278.576C278.436 25.7578 278.436 27.5777 278.436 29.5375C278.716 31.4974 278.856 33.1772 278.856 34.5771Z" fill="black"/>
<path d="M288.795 34.5772H287.255C287.255 33.3173 287.395 31.7774 287.395 29.9576C286.975 29.9576 286.555 29.9576 286.135 29.9576C285.155 29.9576 284.455 30.2376 283.896 30.7975C283.336 31.3575 282.916 32.3374 282.496 34.0172C282.356 34.2972 282.356 34.4372 282.356 34.5772H280.676C280.676 34.4372 280.816 34.1572 280.956 33.7373C281.516 32.1974 281.936 31.0775 282.216 30.6575C282.496 30.2376 283.056 29.8176 283.756 29.6776V29.5376C282.076 29.2576 281.376 28.2777 281.376 26.7378C281.376 24.778 282.776 23.7981 285.435 23.7981C285.855 23.7981 286.275 23.7981 286.835 23.7981C287.395 23.7981 287.675 23.7981 287.675 23.7981H288.795C288.655 25.198 288.655 26.8778 288.655 28.8377C288.795 31.0775 288.795 32.8973 288.795 34.5772ZM287.395 28.9777C287.395 27.7178 287.395 26.4579 287.255 25.058C286.415 24.918 285.715 24.918 285.295 24.918C284.455 24.918 283.756 25.058 283.336 25.338C282.916 25.6179 282.776 26.0379 282.776 26.5979C282.776 28.1377 283.896 28.8377 286.275 28.8377C286.835 28.9777 287.115 28.9777 287.395 28.9777Z" fill="black"/>
<path d="M304.616 33.4572C304.616 33.7372 304.476 34.4371 304.336 35.557C304.196 36.6769 304.056 37.3769 304.056 37.9368H303.076C303.076 37.2369 303.076 36.117 303.076 34.4371C302.237 34.4371 300.977 34.2971 299.157 34.2971C297.757 34.2971 296.497 34.2971 295.517 34.4371C295.237 35.977 295.097 37.2369 295.097 37.9368H294.117C294.117 37.3769 294.117 36.5369 294.117 35.557C294.117 34.5771 294.117 33.7372 294.117 33.4572H294.957C295.937 30.6574 297.197 27.4377 298.737 23.938H302.936C302.936 25.6178 302.796 27.2977 302.796 28.9776C302.796 30.5174 302.796 32.0573 302.936 33.5972H304.616V33.4572ZM301.677 33.4572C301.677 32.3373 301.537 30.9374 301.537 29.1176C301.537 27.4377 301.537 26.0378 301.537 24.9179H299.577C297.897 28.8376 296.777 31.6373 296.357 33.4572H301.677Z" fill="black"/>
<path d="M313.154 33.3172V34.5771H306.574C306.714 32.8972 306.714 31.0774 306.714 28.9776C306.714 27.0177 306.714 25.3379 306.574 23.938H312.734V25.1979C311.194 25.1979 309.654 25.0579 307.974 25.0579C307.974 25.8978 307.974 27.0177 307.974 28.5576C309.374 28.5576 310.774 28.5576 311.894 28.4176V29.6775C310.634 29.6775 309.374 29.5375 307.974 29.5375C307.974 30.9374 307.974 32.1973 308.114 33.4572C309.794 33.4572 311.474 33.4572 313.154 33.3172Z" fill="black"/>
<path d="M322.108 23.938V25.0579C320.988 25.0579 319.868 24.9179 318.749 24.9179C318.749 26.0378 318.749 27.2977 318.749 28.9776C318.749 30.7974 318.749 32.6173 318.889 34.5771H317.349C317.349 32.7572 317.489 30.7974 317.489 28.9776C317.489 27.4377 317.489 26.0378 317.489 24.9179C316.649 24.9179 315.529 24.9179 314.129 25.0579V23.938H322.108Z" fill="black"/>
<path d="M331.069 33.3173L330.929 34.5772C330.229 34.7172 329.529 34.8572 328.689 34.8572C326.87 34.8572 325.33 34.2972 324.49 33.3173C323.65 32.3374 323.09 31.0775 323.09 29.5376C323.09 27.9977 323.65 26.5979 324.63 25.478C325.61 24.358 327.149 23.7981 328.829 23.7981C329.389 23.7981 329.809 23.9381 330.369 24.0781L330.089 25.338C329.529 25.198 328.969 25.058 328.409 25.058C327.15 25.058 326.03 25.478 325.33 26.3179C324.63 27.1578 324.35 28.1377 324.35 29.3976C324.35 30.6575 324.77 31.6374 325.47 32.4774C326.17 33.3173 327.289 33.7373 328.689 33.7373C329.529 33.7373 330.229 33.5973 331.069 33.3173Z" fill="black"/>
<path d="M339.893 23.938V25.0579C338.773 25.0579 337.654 24.9179 336.534 24.9179C336.534 26.0378 336.534 27.2977 336.534 28.9776C336.534 30.7974 336.534 32.6173 336.674 34.5771H335.134C335.134 32.7572 335.274 30.7974 335.274 28.9776C335.274 27.4377 335.274 26.0378 335.274 24.9179C334.434 24.9179 333.314 24.9179 331.914 25.0579V23.938H339.893Z" fill="black"/>
<path d="M349.13 31.3575C349.13 32.4774 348.71 33.1774 347.73 33.8773C346.89 34.4373 345.63 34.7172 344.09 34.7172C343.67 34.7172 342.83 34.7172 341.57 34.7172C341.71 33.0374 341.71 31.2175 341.71 29.1177C341.71 27.1579 341.71 25.478 341.57 24.0781H342.55C342.69 24.0781 343.11 24.0781 343.67 24.0781C344.23 24.0781 344.65 24.0781 344.93 24.0781C347.17 24.0781 348.29 24.9181 348.29 26.4579C348.29 27.7178 347.73 28.5577 346.61 28.8377V28.9777C348.29 29.1177 349.13 29.9576 349.13 31.3575ZM347.03 26.5979C347.03 25.478 346.33 24.9181 344.79 24.9181C344.09 24.9181 343.39 24.9181 342.97 25.058C342.97 25.478 342.97 26.5979 342.97 28.4178C343.25 28.4178 343.53 28.4178 343.81 28.4178C344.93 28.4178 345.63 28.2778 346.19 27.9978C346.75 27.8578 347.03 27.2979 347.03 26.5979ZM347.73 31.4975C347.73 30.0976 346.47 29.5377 344.09 29.5377C343.67 29.5377 343.25 29.5377 342.97 29.5377C342.97 30.9376 342.97 32.3374 343.11 33.4573C343.25 33.4573 343.67 33.5973 344.23 33.5973C345.49 33.5973 346.47 33.4573 347.03 33.0374C347.45 32.7574 347.73 32.1974 347.73 31.4975Z" fill="black"/>
<path d="M360.188 34.5771H358.368C358.368 34.1571 358.088 33.0372 357.388 31.0774H352.629C351.929 33.0372 351.649 34.1571 351.649 34.5771H349.969C349.969 34.4371 350.669 32.6173 352.069 29.3975C353.468 26.1778 354.168 24.358 354.168 23.938H356.128C356.128 24.218 356.828 26.0378 358.088 29.2575C359.348 32.4773 360.188 34.2971 360.188 34.5771ZM356.968 30.0975C355.708 26.8777 355.008 25.1979 355.008 24.9179H354.868C354.868 25.0579 354.168 26.7378 352.909 30.0975H356.968Z" fill="black"/>
<path d="M363.409 33.7373C363.409 34.4372 363.269 35.1372 362.849 35.8371C362.429 36.537 361.869 37.097 361.169 37.7969L360.609 37.237C361.449 36.2571 361.869 35.4171 361.869 34.7172C361.449 34.4372 361.169 34.0173 361.169 33.5973C361.169 33.3173 361.309 33.0373 361.449 32.7574C361.589 32.4774 361.869 32.3374 362.289 32.3374C362.569 32.3374 362.849 32.4774 363.129 32.7574C363.409 33.0373 363.409 33.3173 363.409 33.7373Z" fill="black"/>
<path d="M138.167 53.4755L138.027 54.7354C137.327 54.8754 136.627 55.0154 135.787 55.0154C133.967 55.0154 132.427 54.4554 131.587 53.4755C130.747 52.4956 130.188 51.2357 130.188 49.6958C130.188 48.1559 130.747 46.7561 131.727 45.6362C132.707 44.5163 134.247 43.9563 135.927 43.9563C136.487 43.9563 136.907 44.0963 137.467 44.2363L137.187 45.4962C136.627 45.3562 136.067 45.2162 135.507 45.2162C134.247 45.2162 133.127 45.6362 132.427 46.4761C131.727 47.316 131.587 48.2959 131.587 49.4158C131.587 50.6757 132.007 51.6557 132.707 52.4956C133.407 53.3355 134.527 53.7555 135.927 53.7555C136.627 53.8955 137.327 53.7555 138.167 53.4755Z" fill="black"/>
<path d="M146.848 53.4756V54.7355H140.129C140.269 53.0557 140.269 51.2358 140.269 49.136C140.269 47.1762 140.269 45.4963 140.129 44.0964H146.288V45.3563C144.749 45.3563 143.209 45.2163 141.529 45.2163C141.529 46.0563 141.529 47.1762 141.529 48.716C142.929 48.716 144.329 48.716 145.448 48.5761V49.836C144.189 49.836 142.929 49.696 141.529 49.696C141.529 51.0958 141.529 52.3557 141.669 53.6156C143.489 53.6156 145.168 53.6156 146.848 53.4756Z" fill="black"/>
<path d="M160.286 54.7355H158.746C158.746 53.4756 158.606 51.7957 158.467 49.4159C158.327 47.0361 158.187 45.7762 158.187 45.2163C157.627 47.0361 156.927 48.856 156.087 50.9558C155.247 53.0556 154.827 54.3155 154.827 54.5955H153.707C153.707 54.1755 153.287 52.9156 152.587 50.8158C151.887 48.716 151.327 47.3161 151.047 46.6162C150.767 45.9162 150.627 45.3563 150.627 45.0763H150.487C150.487 45.7762 150.347 47.3161 150.207 49.5559C150.067 51.7957 149.927 53.4756 149.927 54.4555H148.527C148.527 54.4555 148.667 52.9156 149.087 49.9759C149.507 47.0361 149.647 44.9363 149.647 43.8164H151.747C151.747 44.3764 152.167 45.9162 153.007 48.296C153.847 50.6758 154.267 52.2157 154.267 52.6357H154.407C154.407 52.0757 154.967 50.6758 155.947 48.296C156.927 45.9162 157.487 44.3764 157.487 43.8164H159.586C159.586 44.9363 159.726 47.0361 160.006 49.9759C160.286 52.9156 160.286 54.7355 160.286 54.7355Z" fill="black"/>
<path d="M170.646 51.3757C170.646 52.4956 170.226 53.3356 169.386 53.8955C168.546 54.4555 167.286 54.8754 165.746 54.8754C165.326 54.8754 164.486 54.8754 163.227 54.8754C163.367 53.1956 163.367 51.3757 163.367 49.2759C163.367 47.3161 163.367 45.6362 163.227 44.2363H164.766C164.766 44.6563 164.626 46.0562 164.626 48.436C165.186 48.436 165.606 48.436 166.026 48.436C169.106 48.156 170.646 49.2759 170.646 51.3757ZM169.246 51.5157C169.246 50.1158 168.126 49.2759 165.746 49.2759C165.326 49.2759 164.906 49.2759 164.626 49.2759C164.626 50.6758 164.626 52.2157 164.766 53.4756C165.046 53.4756 165.466 53.6155 165.886 53.6155C167.146 53.6155 168.126 53.4756 168.546 53.0556C168.966 52.6356 169.246 52.2157 169.246 51.5157Z" fill="black"/>
<path d="M181.005 54.7355H179.465C179.605 53.7556 179.605 52.2158 179.605 50.1159C179.605 49.136 179.605 48.0161 179.605 46.6162H179.465C179.325 47.1762 178.205 48.5761 176.385 50.8159C174.705 52.9157 173.725 54.1756 173.725 54.7355H172.605C172.745 53.3357 172.745 51.6558 172.745 49.696C172.745 47.7361 172.745 45.9163 172.605 44.0964H174.145C174.005 45.6363 174.005 47.1762 174.005 49.136C174.005 50.1159 174.005 51.0958 173.865 52.2158H174.005C174.285 51.6558 175.265 50.2559 177.085 48.0161C178.765 46.0563 179.605 44.6564 179.605 44.0964H180.725C180.585 45.9163 180.585 47.7361 180.585 49.696C181.005 51.6558 181.005 53.3357 181.005 54.7355Z" fill="black"/>
<path d="M196.126 54.7355H194.586C194.726 53.7556 194.726 52.2158 194.726 50.1159C194.726 49.136 194.726 48.0161 194.726 46.6162H194.586C194.446 47.1762 193.326 48.5761 191.506 50.8159C189.826 52.9157 188.846 54.1756 188.846 54.7355H187.727C187.867 53.3357 187.867 51.6558 187.867 49.696C187.867 47.7361 187.867 45.9163 187.727 44.0964H189.266C189.126 45.6363 189.126 47.1762 189.126 49.136C189.126 50.1159 189.126 51.0958 188.986 52.2158H189.126C189.406 51.6558 190.386 50.2559 192.206 48.0161C193.886 46.0563 194.726 44.6564 194.726 44.0964H195.846C195.706 45.9163 195.706 47.7361 195.706 49.696C195.986 51.6558 195.986 53.3357 196.126 54.7355Z" fill="black"/>
<path d="M210.262 51.5157C210.262 52.6356 209.843 53.3356 208.863 54.0355C208.023 54.5955 206.763 54.8754 205.223 54.8754C204.803 54.8754 203.963 54.8754 202.703 54.8754C202.843 53.1956 202.843 51.3757 202.843 49.2759C202.843 47.3161 202.843 45.6362 202.703 44.2363H203.683C203.823 44.2363 204.243 44.2363 204.803 44.2363C205.363 44.2363 205.783 44.2363 206.063 44.2363C208.303 44.2363 209.423 45.0763 209.423 46.6161C209.423 47.876 208.863 48.716 207.743 48.9959C209.563 49.2759 210.262 50.1158 210.262 51.5157ZM208.303 46.7561C208.303 45.6362 207.603 45.0763 206.063 45.0763C205.363 45.0763 204.663 45.0763 204.243 45.2162C204.243 45.6362 204.243 46.7561 204.243 48.576C204.523 48.576 204.803 48.576 205.083 48.576C206.203 48.576 206.903 48.436 207.463 48.156C208.023 48.016 208.303 47.4561 208.303 46.7561ZM208.863 51.6557C208.863 50.2558 207.603 49.6959 205.223 49.6959C204.803 49.6959 204.383 49.6959 204.103 49.6959C204.103 51.0958 204.103 52.4956 204.243 53.6155C204.383 53.6155 204.803 53.7555 205.363 53.7555C206.623 53.7555 207.603 53.6155 208.163 53.1956C208.723 52.9156 208.863 52.3556 208.863 51.6557Z" fill="black"/>
<path d="M221.88 49.2759C221.88 51.0957 221.32 52.4956 220.34 53.4755C219.36 54.4554 218.1 55.0154 216.7 55.0154C215.44 55.0154 214.321 54.5954 213.341 53.6155C212.361 52.6356 211.801 51.3757 211.801 49.6958C211.801 47.876 212.361 46.4761 213.341 45.4962C214.321 44.5163 215.58 43.9563 216.98 43.9563C218.24 43.9563 219.36 44.3763 220.34 45.3562C221.32 46.3361 221.88 47.596 221.88 49.2759ZM220.48 49.4158C220.48 48.016 220.06 46.8961 219.36 46.1961C218.66 45.4962 217.82 45.0762 216.84 45.0762C216 45.0762 215.161 45.4962 214.461 46.3361C213.761 47.176 213.341 48.2959 213.341 49.5558C213.341 50.9557 213.761 52.0756 214.461 52.7756C215.161 53.4755 216 53.8955 216.98 53.8955C217.82 53.8955 218.66 53.4755 219.36 52.6356C220.06 51.7956 220.48 50.8157 220.48 49.4158Z" fill="black"/>
<path d="M231.538 53.4755L231.398 54.7354C230.698 54.8754 229.998 55.0154 229.158 55.0154C227.338 55.0154 225.798 54.4554 224.958 53.4755C224.119 52.4956 223.559 51.2357 223.559 49.6958C223.559 48.1559 224.119 46.7561 225.098 45.6362C226.078 44.5163 227.618 43.9563 229.298 43.9563C229.858 43.9563 230.278 44.0963 230.838 44.2363L230.558 45.4962C229.998 45.3562 229.438 45.2162 228.878 45.2162C227.618 45.2162 226.498 45.6362 225.798 46.4761C225.098 47.316 224.818 48.2959 224.818 49.5558C224.818 50.8157 225.238 51.7956 225.938 52.6356C226.638 53.4755 227.758 53.8955 229.158 53.8955C229.998 53.8955 230.698 53.7555 231.538 53.4755Z" fill="black"/>
<path d="M240.919 54.7354H239.379C239.379 53.1955 239.519 51.3757 239.519 49.4158C239.519 47.736 239.519 46.3361 239.659 45.2162H234.76C234.9 46.3361 234.9 47.736 234.9 49.2759C234.9 51.3757 234.9 53.1955 235.04 54.7354H233.5C233.64 52.6356 233.64 50.6757 233.64 48.9959C233.64 47.456 233.64 45.7761 233.5 43.9563H240.919C240.919 45.6362 240.779 47.316 240.779 48.9959C240.779 50.8157 240.919 52.6356 240.919 54.7354Z" fill="black"/>
<path d="M252.259 54.7355H250.719C250.859 53.7556 250.859 52.2158 250.859 50.1159C250.859 49.136 250.859 48.0161 250.859 46.6162H250.719C250.579 47.1762 249.459 48.5761 247.639 50.8159C245.959 52.9157 244.979 54.1756 244.979 54.7355H243.859C243.999 53.3357 243.999 51.6558 243.999 49.696C243.999 47.7361 243.999 45.9163 243.859 44.0964H245.399C245.259 45.6363 245.259 47.1762 245.259 49.136C245.259 50.1159 245.259 51.0958 245.119 52.2158H245.259C245.539 51.6558 246.519 50.2559 248.339 48.0161C250.019 46.0563 250.859 44.6564 250.859 44.0964H251.979C251.839 45.9163 251.839 47.7361 251.839 49.696C252.119 51.6558 252.259 53.3357 252.259 54.7355Z" fill="black"/>
<path d="M262.198 44.0964V45.2163C261.078 45.2163 259.958 45.0764 258.838 45.0764C258.838 46.1963 258.838 47.4562 258.838 49.136C258.838 50.9559 258.838 52.7757 258.978 54.7355H257.438C257.438 52.9157 257.578 50.9559 257.578 49.136C257.578 47.5961 257.578 46.1963 257.578 45.0764C256.739 45.0764 255.619 45.0764 254.219 45.2163V44.0964H262.198Z" fill="black"/>
<path d="M272.696 54.7355H271.016C271.016 54.3156 270.736 53.1957 270.037 51.2358H265.277C264.577 53.1957 264.297 54.3156 264.297 54.7355H262.617C262.617 54.5956 263.317 52.7757 264.717 49.556C266.117 46.3362 266.817 44.5164 266.817 44.0964H268.777C268.777 44.3764 269.477 46.1963 270.736 49.416C271.996 52.6357 272.696 54.4556 272.696 54.7355ZM269.477 50.2559C268.217 47.0362 267.517 45.3563 267.517 45.0764H267.377C267.377 45.2163 266.677 46.8962 265.417 50.2559H269.477Z" fill="black"/>
<path d="M282.214 54.7355H280.674C280.674 52.7757 280.814 51.0958 280.814 49.696H275.775C275.775 50.9559 275.775 52.6357 275.915 54.7355H274.375C274.515 52.7757 274.515 50.8159 274.515 49.136C274.515 47.3162 274.515 45.6363 274.375 44.0964H275.915C275.915 45.6363 275.775 47.1762 275.775 48.716H280.674C280.674 47.5961 280.674 46.0563 280.534 44.0964H282.074C281.934 45.6363 281.934 47.3162 281.934 49.136C282.074 51.2358 282.074 53.0557 282.214 54.7355Z" fill="black"/>
<path d="M293.552 54.7355H292.012C292.152 53.7556 292.152 52.2158 292.152 50.1159C292.152 49.136 292.152 48.0161 292.152 46.6162H292.012C291.872 47.1762 290.752 48.5761 288.932 50.8159C287.252 52.9157 286.272 54.1756 286.272 54.7355H285.152C285.292 53.3357 285.292 51.6558 285.292 49.696C285.292 47.7361 285.292 45.9163 285.152 44.0964H286.692C286.552 45.6363 286.552 47.1762 286.552 49.136C286.552 50.1159 286.552 51.0958 286.412 52.2158H286.552C286.832 51.6558 287.812 50.2559 289.632 48.0161C291.312 46.0563 292.152 44.6564 292.152 44.0964H293.272C293.132 45.9163 293.132 47.7361 293.132 49.696C293.412 51.6558 293.412 53.3357 293.552 54.7355Z" fill="black"/>
<path d="M303.494 54.7356H301.954C301.954 53.4757 302.094 51.9359 302.094 50.116C301.674 50.116 301.255 50.116 300.835 50.116C299.855 50.116 299.155 50.396 298.595 50.956C298.035 51.5159 297.615 52.4958 297.195 54.1757C297.055 54.4557 297.055 54.5956 297.055 54.7356H295.375C295.375 54.5956 295.515 54.3157 295.655 53.8957C296.215 52.3558 296.635 51.2359 296.915 50.816C297.195 50.396 297.755 49.976 298.455 49.836V49.6961C296.775 49.4161 296.075 48.4362 296.075 46.8963C296.075 44.9365 297.475 43.9565 300.135 43.9565C300.555 43.9565 300.975 43.9565 301.534 43.9565C302.094 43.9565 302.374 43.9565 302.374 43.9565H303.494C303.354 45.3564 303.354 47.0363 303.354 48.9961C303.354 51.2359 303.494 53.0558 303.494 54.7356ZM302.094 49.1361C302.094 47.8762 302.094 46.6163 301.954 45.2164C301.115 45.0764 300.415 45.0764 299.995 45.0764C299.155 45.0764 298.455 45.2164 298.035 45.4964C297.615 45.7764 297.475 46.1964 297.475 46.7563C297.475 48.2962 298.595 48.9961 300.975 48.9961C301.534 49.1361 301.814 49.1361 302.094 49.1361Z" fill="black"/>
<path d="M138.166 66.9145C138.166 68.1744 137.746 69.1543 136.766 69.7143C135.786 70.2742 134.526 70.6942 132.987 70.6942C132.847 70.6942 132.567 70.6942 132.427 70.6942C132.427 71.9541 132.427 73.354 132.567 75.0338H130.887C131.027 73.494 131.027 71.6741 131.027 69.4343C131.027 67.6145 131.027 65.7946 130.887 64.3947H132.007C132.147 64.3947 132.427 64.3947 133.127 64.3947C133.826 64.3947 134.246 64.3947 134.666 64.3947C135.786 64.2547 136.626 64.3947 137.186 64.9547C137.746 65.5146 138.166 66.0746 138.166 66.9145ZM136.766 67.3345C136.766 65.9346 135.786 65.2347 133.826 65.2347C133.407 65.2347 132.847 65.2347 132.287 65.3746C132.287 66.2146 132.287 67.6145 132.287 69.5743C132.427 69.5743 132.707 69.5743 132.987 69.5743C135.506 69.5743 136.766 68.8744 136.766 67.3345Z" fill="black"/>
<path d="M149.509 69.4343C149.509 71.2541 148.949 72.654 147.969 73.6339C146.989 74.6139 145.729 75.1738 144.329 75.1738C143.069 75.1738 141.949 74.7539 140.97 73.7739C139.99 72.794 139.43 71.5341 139.43 69.8543C139.43 68.0344 139.99 66.6345 140.97 65.6546C141.949 64.6747 143.209 64.1147 144.609 64.1147C145.869 64.1147 146.989 64.5347 147.969 65.5146C148.949 66.4945 149.509 67.7544 149.509 69.4343ZM148.109 69.5743C148.109 68.1744 147.689 67.0545 146.989 66.3546C146.289 65.6546 145.449 65.2347 144.469 65.2347C143.629 65.2347 142.789 65.6546 142.089 66.4945C141.39 67.3345 140.97 68.4544 140.97 69.7143C140.97 71.1142 141.39 72.2341 142.089 72.934C142.789 73.6339 143.629 74.0539 144.609 74.0539C145.449 74.0539 146.289 73.6339 146.989 72.794C147.689 71.9541 148.109 70.9742 148.109 69.5743Z" fill="black"/>
<path d="M159.022 73.6339L158.882 74.8938C158.182 75.0338 157.482 75.1738 156.643 75.1738C154.823 75.1738 153.283 74.6139 152.443 73.6339C151.603 72.654 151.043 71.3941 151.043 69.8543C151.043 68.3144 151.603 66.9145 152.583 65.7946C153.563 64.6747 155.103 64.1147 156.782 64.1147C157.342 64.1147 157.762 64.2547 158.322 64.3947L158.042 65.6546C157.482 65.5146 156.922 65.3746 156.363 65.3746C155.103 65.3746 153.983 65.7946 153.283 66.6345C152.583 67.4745 152.583 68.4544 152.583 69.5743C152.583 70.8342 153.003 71.8141 153.703 72.654C154.403 73.494 155.523 73.9139 156.922 73.9139C157.622 74.0539 158.182 73.9139 159.022 73.6339Z" fill="black"/>
<path d="M168.264 73.6339L168.124 74.8938C167.425 75.0338 166.725 75.1738 165.885 75.1738C164.065 75.1738 162.525 74.6139 161.685 73.6339C160.845 72.654 160.285 71.3941 160.285 69.8543C160.285 68.3144 160.845 66.9145 161.825 65.7946C162.805 64.6747 164.345 64.1147 166.025 64.1147C166.585 64.1147 167.005 64.2547 167.565 64.3947L167.285 65.6546C166.725 65.5146 166.165 65.3746 165.605 65.3746C164.345 65.3746 163.225 65.7946 162.525 66.6345C161.825 67.4745 161.545 68.4544 161.545 69.7143C161.545 70.9742 161.965 71.9541 162.665 72.794C163.365 73.6339 164.485 74.0539 165.885 74.0539C166.725 74.0539 167.425 73.9139 168.264 73.6339Z" fill="black"/>
<path d="M178.626 74.8937H177.086C177.226 73.9138 177.226 72.374 177.226 70.2741C177.226 69.2942 177.226 68.1743 177.226 66.7744H177.086C176.946 67.3344 175.826 68.7343 174.006 70.9741C172.326 73.0739 171.346 74.3338 171.346 74.8937H170.227C170.367 73.4939 170.367 71.814 170.367 69.8542C170.367 67.8943 170.367 66.0745 170.227 64.2546H171.766C171.626 65.7945 171.626 67.3344 171.626 69.2942C171.626 70.2741 171.626 71.2541 171.486 72.374H171.626C171.906 71.814 172.886 70.4141 174.706 68.1743C176.386 66.2145 177.226 64.8146 177.226 64.2546H178.346C178.206 66.0745 178.206 67.8943 178.206 69.8542C178.486 71.814 178.486 73.4939 178.626 74.8937Z" fill="black"/>
<path d="M189.962 74.8937H188.422C188.562 73.9138 188.562 72.374 188.562 70.2741C188.562 69.2942 188.562 68.1743 188.562 66.7744H188.422C188.282 67.3344 187.162 68.7343 185.342 70.9741C183.662 73.0739 182.682 74.3338 182.682 74.8937H181.562C181.702 73.4939 181.702 71.814 181.702 69.8542C181.702 67.8943 181.702 66.0745 181.562 64.2546H183.102C182.962 65.7945 182.962 67.3344 182.962 69.2942C182.962 70.2741 182.962 71.2541 182.822 72.374H182.962C183.242 71.814 184.222 70.4141 186.042 68.1743C187.722 66.2145 188.562 64.8146 188.562 64.2546H189.682C189.542 66.0745 189.542 67.8943 189.542 69.8542C189.822 71.814 189.822 73.4939 189.962 74.8937ZM188.422 61.3149C188.422 61.8748 188.282 62.4348 187.862 62.9947C187.442 63.5547 186.882 63.6947 185.902 63.6947C184.922 63.6947 184.222 63.4147 183.942 62.9947C183.662 62.5748 183.382 61.8748 183.382 61.1749L184.502 61.0349C184.502 62.1548 184.922 62.7148 185.902 62.7148C186.462 62.7148 186.882 62.5748 187.022 62.2948C187.162 62.0148 187.302 61.5949 187.302 61.0349L188.422 61.3149Z" fill="black"/>
<path d="M200.319 73.6339L200.179 74.8938C199.479 75.0338 198.779 75.1738 197.939 75.1738C196.12 75.1738 194.58 74.6139 193.74 73.6339C192.9 72.654 192.34 71.3941 192.34 69.8543C192.34 68.3144 192.9 66.9145 193.88 65.7946C194.86 64.6747 196.4 64.1147 198.079 64.1147C198.639 64.1147 199.059 64.2547 199.619 64.3947L199.339 65.6546C198.779 65.5146 198.219 65.3746 197.659 65.3746C196.4 65.3746 195.28 65.7946 194.58 66.6345C193.88 67.4745 193.6 68.4544 193.6 69.7143C193.6 70.9742 194.02 71.9541 194.72 72.794C195.42 73.6339 196.539 74.0539 197.939 74.0539C198.779 74.0539 199.479 73.9139 200.319 73.6339Z" fill="black"/>
<path d="M210.261 74.8938H208.581C208.581 74.7539 208.441 74.6139 208.301 74.1939C207.881 72.514 207.321 71.2541 206.901 70.8342C206.482 70.4142 205.502 69.9943 204.522 69.9943C204.242 69.9943 203.962 69.9943 203.822 69.9943C203.822 71.8141 203.822 73.354 203.962 74.8938H202.422C202.562 73.214 202.562 71.3941 202.562 69.2943C202.562 67.3345 202.562 65.6546 202.422 64.2547H203.962C203.962 65.9346 203.822 67.4745 203.822 69.0143C204.102 69.0143 204.382 69.0143 204.522 69.0143C205.502 69.0143 206.202 68.7344 206.901 68.0344C207.601 67.3345 208.021 66.3546 208.301 64.8147C208.301 64.5347 208.441 64.3947 208.581 64.1147H209.981C209.981 64.2547 209.841 64.5347 209.701 64.9547C209.281 66.2146 209.001 67.1945 208.581 67.7544C208.161 68.3144 207.601 68.8743 207.041 69.1543V69.2943C207.741 69.5743 208.301 69.8543 208.581 70.4142C208.861 70.9742 209.421 72.0941 209.981 73.7739C209.981 74.1939 209.981 74.4739 210.261 74.8938Z" fill="black"/>
<path d="M221.603 69.4343C221.603 71.2541 221.043 72.654 220.063 73.6339C219.083 74.6139 217.823 75.1738 216.423 75.1738C215.163 75.1738 214.043 74.7539 213.063 73.7739C212.083 72.794 211.523 71.5341 211.523 69.8543C211.523 68.0344 212.083 66.6345 213.063 65.6546C214.043 64.6747 215.303 64.1147 216.703 64.1147C217.963 64.1147 219.083 64.5347 220.063 65.5146C221.043 66.4945 221.603 67.7544 221.603 69.4343ZM220.203 69.5743C220.203 68.1744 219.783 67.0545 219.083 66.3546C218.383 65.6546 217.543 65.2347 216.563 65.2347C215.723 65.2347 214.883 65.6546 214.183 66.4945C213.483 67.3345 213.063 68.4544 213.063 69.7143C213.063 71.1142 213.483 72.2341 214.183 72.934C214.883 73.6339 215.723 74.0539 216.703 74.0539C217.543 74.0539 218.383 73.6339 219.083 72.794C219.783 71.9541 220.203 70.9742 220.203 69.5743Z" fill="black"/>
<path d="M232.24 74.8939H230.7C230.84 73.914 230.84 72.3741 230.84 70.2743C230.84 69.2944 230.84 68.1745 230.84 66.7746H230.7C230.56 67.3345 229.44 68.7344 227.62 70.9742C225.94 73.0741 224.96 74.3339 224.96 74.8939H223.98C224.12 73.494 224.12 71.8142 224.12 69.8543C224.12 67.8945 224.12 66.0746 223.98 64.2548H225.52C225.38 65.7947 225.38 67.3345 225.38 69.2944C225.38 70.2743 225.38 71.2542 225.24 72.3741H225.38C225.66 71.8142 226.64 70.4143 228.46 68.1745C230.14 66.2146 230.98 64.8147 230.98 64.2548H232.1C231.96 66.0746 231.96 67.8945 231.96 69.8543C232.24 71.8142 232.24 73.494 232.24 74.8939ZM230.84 61.315C230.84 61.875 230.7 62.4349 230.28 62.9949C229.86 63.5548 229.3 63.6948 228.32 63.6948C227.34 63.6948 226.64 63.4149 226.36 62.9949C226.08 62.5749 225.8 62.015 225.8 61.315L226.92 61.175C226.92 62.295 227.34 62.8549 228.32 62.8549C228.88 62.8549 229.3 62.7149 229.44 62.4349C229.58 62.155 229.72 61.735 229.72 61.175L230.84 61.315Z" fill="black"/>
<path d="M247.778 74.8937H246.099C246.099 74.4738 245.819 73.3539 245.119 71.394H240.359C239.659 73.3539 239.379 74.4738 239.379 74.8937H237.699C237.699 74.7538 238.399 72.9339 239.799 69.7142C241.199 66.4944 241.899 64.6746 241.899 64.2546H243.859C243.859 64.5346 244.559 66.3545 245.819 69.5742C247.078 72.7939 247.778 74.6138 247.778 74.8937ZM244.559 70.4141C243.299 67.1944 242.599 65.5145 242.599 65.2346H242.459C242.459 65.3745 241.759 67.0544 240.499 70.4141H244.559Z" fill="black"/>
<path d="M257.296 74.8938H255.617C255.617 74.7539 255.477 74.6139 255.337 74.1939C254.917 72.514 254.357 71.2541 253.937 70.8342C253.517 70.4142 252.677 69.9943 251.557 69.9943C251.277 69.9943 250.997 69.9943 250.857 69.9943C250.857 71.8141 250.857 73.354 250.997 74.8938H249.457C249.597 73.214 249.597 71.3941 249.597 69.2943C249.597 67.3345 249.597 65.6546 249.457 64.2547H250.997C250.997 65.9346 250.857 67.4745 250.857 69.0143C251.137 69.0143 251.417 69.0143 251.557 69.0143C252.537 69.0143 253.237 68.7344 253.937 68.0344C254.637 67.3345 255.057 66.3546 255.337 64.8147C255.337 64.5347 255.477 64.3947 255.617 64.1147H257.016C257.016 64.2547 256.876 64.5347 256.736 64.9547C256.316 66.2146 256.036 67.1945 255.617 67.7544C255.197 68.3144 254.637 68.8743 254.077 69.1543V69.2943C254.777 69.5743 255.337 69.8543 255.617 70.4142C255.896 70.9742 256.456 72.0941 257.016 73.7739C257.016 74.1939 257.156 74.4739 257.296 74.8938Z" fill="black"/>
<path d="M268.212 74.894H266.532C266.532 74.474 266.252 73.3541 265.552 71.3943H260.793C260.093 73.3541 259.813 74.474 259.813 74.894H258.133C258.133 74.754 258.833 72.9342 260.233 69.7144C261.633 66.4947 262.332 64.6748 262.332 64.2549H264.292C264.292 64.5349 264.992 66.3547 266.252 69.5744C267.512 72.7942 268.212 74.614 268.212 74.894ZM264.992 70.4144C263.732 67.1946 263.172 65.5148 263.172 65.2348H263.032C263.032 65.3748 262.332 67.0546 261.073 70.4144H264.992Z" fill="black"/>
<path d="M278.855 73.7738C278.855 74.0538 278.715 74.7538 278.575 75.8737C278.435 76.9936 278.295 77.6935 278.295 78.2535H277.315C277.315 77.5535 277.315 76.4336 277.315 74.7538C276.475 74.7538 275.215 74.6138 273.395 74.6138C271.995 74.6138 270.735 74.6138 269.755 74.7538C269.475 76.2936 269.335 77.5535 269.335 78.2535H268.355C268.355 77.6935 268.355 76.8536 268.355 75.8737C268.355 74.8937 268.355 74.0538 268.355 73.7738H269.195C270.175 70.9741 271.435 67.7543 272.975 64.2546H277.175C277.175 65.9345 277.035 67.6144 277.035 69.2942C277.035 70.8341 277.035 72.374 277.175 73.9138H278.855V73.7738ZM275.915 73.7738C275.915 72.6539 275.775 71.254 275.775 69.4342C275.775 67.7543 275.775 66.3545 275.775 65.2346H273.815C272.135 69.1542 271.015 71.954 270.595 73.7738H275.915Z" fill="black"/>
<path d="M287.396 73.6338V74.8937H280.816C280.956 73.2139 280.956 71.394 280.956 69.2942C280.956 67.3344 280.956 65.6545 280.816 64.2546H286.976V65.5145C285.436 65.5145 283.896 65.3745 282.216 65.3745C282.216 66.2145 282.216 67.3344 282.216 68.8743C283.616 68.8743 285.016 68.8742 286.136 68.7343V69.9942C284.876 69.9942 283.616 69.8542 282.216 69.8542C282.216 71.2541 282.216 72.5139 282.356 73.7738C284.036 73.7738 285.716 73.7738 287.396 73.6338Z" fill="black"/>
<path d="M300.974 74.8937H299.434C299.434 73.6338 299.294 71.9539 299.154 69.5741C299.014 67.1943 298.874 65.9344 298.874 65.3745H298.734C298.174 67.1943 297.474 69.0142 296.634 71.114C295.794 73.2138 295.374 74.4737 295.374 74.7537H294.254C294.254 74.3337 293.834 73.0738 293.135 70.974C292.435 68.8742 291.875 67.4743 291.595 66.7744C291.315 66.0744 291.175 65.5145 291.175 65.2345C291.175 65.9344 291.035 67.4743 290.895 69.7141C290.755 71.9539 290.615 73.6338 290.615 74.6137H289.215C289.215 74.6137 289.355 73.0738 289.775 70.1341C290.195 67.1943 290.335 65.0945 290.335 63.9746H292.435C292.435 64.5346 292.855 66.0744 293.694 68.4542C294.534 70.834 294.954 72.3739 294.954 72.7939H295.094C295.094 72.2339 295.654 70.834 296.634 68.4542C297.614 66.0744 298.174 64.5346 298.174 63.9746H300.274C300.274 65.0945 300.414 67.1943 300.694 70.1341C300.974 73.0738 300.974 74.8937 300.974 74.8937Z" fill="black"/>
<path d="M312.033 74.8937H310.493C310.633 73.9138 310.633 72.374 310.633 70.2741C310.633 69.2942 310.633 68.1743 310.633 66.7744H310.493C310.353 67.3344 309.233 68.7343 307.413 70.9741C305.733 73.0739 304.753 74.3338 304.753 74.8937H303.773C303.913 73.4939 303.913 71.814 303.913 69.8542C303.913 67.8943 303.913 66.0745 303.773 64.2546H305.313C305.173 65.7945 305.173 67.3344 305.173 69.2942C305.173 70.2741 305.173 71.254 305.033 72.374H305.173C305.453 71.814 306.433 70.4141 308.253 68.1743C309.933 66.2145 310.773 64.8146 310.773 64.2546H311.893C311.753 66.0745 311.753 67.8943 311.753 69.8542C312.033 71.814 312.033 73.4939 312.033 74.8937Z" fill="black"/>
<path d="M323.513 74.8937H321.973C322.113 73.9138 322.113 72.374 322.113 70.2741C322.113 69.2942 322.113 68.1743 322.113 66.7744H321.973C321.833 67.3344 320.713 68.7343 318.893 70.9741C317.213 73.0739 316.233 74.3338 316.233 74.8937H315.113C315.253 73.4939 315.253 71.814 315.253 69.8542C315.253 67.8943 315.253 66.0745 315.113 64.2546H316.653C316.513 65.7945 316.513 67.3344 316.513 69.2942C316.513 70.2741 316.513 71.2541 316.373 72.374H316.513C316.793 71.814 317.773 70.4141 319.593 68.1743C321.273 66.2145 322.113 64.8146 322.113 64.2546H323.233C323.093 66.0745 323.093 67.8943 323.093 69.8542C323.373 71.814 323.373 73.4939 323.513 74.8937Z" fill="black"/>
<path d="M140.267 89.5925C140.267 91.4124 139.707 92.8122 138.727 93.7922C137.747 94.7721 136.487 95.332 135.087 95.332C133.827 95.332 132.707 94.9121 131.727 93.9321C130.747 92.9522 130.188 91.6923 130.188 90.0125C130.188 88.1926 130.747 86.7927 131.727 85.8128C132.707 84.8329 133.967 84.2729 135.367 84.2729C136.627 84.2729 137.747 84.6929 138.727 85.6728C139.707 86.6528 140.267 87.9126 140.267 89.5925ZM138.727 89.7325C138.727 88.3326 138.307 87.2127 137.607 86.5128C136.907 85.8128 136.067 85.3929 135.087 85.3929C134.247 85.3929 133.407 85.8128 132.707 86.6528C132.007 87.4927 131.587 88.4726 131.587 89.8725C131.587 91.2724 132.007 92.3923 132.707 93.0922C133.407 93.7922 134.247 94.2121 135.227 94.2121C136.067 94.2121 136.907 93.7922 137.607 92.9522C138.307 92.1123 138.727 91.1324 138.727 89.7325Z" fill="black"/>
<path d="M150.067 91.8324C150.067 92.9523 149.647 93.6522 148.667 94.2122C147.687 94.7721 146.567 95.1921 145.028 95.1921C144.608 95.1921 143.768 95.1921 142.508 95.1921C142.648 93.5122 142.648 91.6924 142.648 89.5926C142.648 87.6327 142.648 85.9529 142.508 84.553H149.367V85.8129C147.407 85.8129 145.588 85.6729 143.908 85.6729C143.908 86.5128 143.908 87.6327 143.908 89.0326C144.468 89.0326 144.888 89.0326 145.308 89.0326C146.707 89.0326 147.687 89.1726 148.387 89.4526C149.507 89.7325 150.067 90.5725 150.067 91.8324ZM148.667 91.9724C148.667 90.5725 147.407 90.0125 145.028 90.0125C144.608 90.0125 144.188 90.0125 143.908 90.0125C143.908 91.4124 143.908 92.8123 144.048 93.9322C144.188 93.9322 144.608 94.0722 145.168 94.0722C146.427 94.0722 147.407 93.9322 147.967 93.5122C148.527 93.0923 148.667 92.6723 148.667 91.9724Z" fill="black"/>
<path d="M159.303 87.0728C159.303 88.3327 158.883 89.3126 157.904 89.8725C156.924 90.4325 155.664 90.8524 154.124 90.8524C153.984 90.8524 153.704 90.8524 153.564 90.8524C153.564 92.1123 153.564 93.5122 153.704 95.1921H152.164C152.304 93.6522 152.304 91.8324 152.304 89.5926C152.304 87.7727 152.304 85.9529 152.164 84.553H153.284C153.424 84.553 153.704 84.553 154.404 84.553C155.104 84.553 155.524 84.553 155.944 84.553C157.064 84.553 157.764 84.833 158.464 85.2529C159.163 85.6729 159.303 86.2328 159.303 87.0728ZM158.044 87.4927C158.044 86.0928 157.064 85.3929 155.104 85.3929C154.684 85.3929 154.124 85.3929 153.564 85.5329C153.564 86.3728 153.564 87.7727 153.564 89.7325C153.704 89.7325 153.984 89.7325 154.264 89.7325C156.784 89.7325 158.044 89.0326 158.044 87.4927Z" fill="black"/>
<path d="M170.083 95.0522H168.403C168.403 94.6322 168.123 93.5123 167.423 91.5525H162.664C161.964 93.5123 161.684 94.6322 161.684 95.0522H160.004C160.004 94.9122 160.704 93.0924 162.104 89.8726C163.504 86.6529 164.204 84.8331 164.204 84.4131H166.163C166.163 84.6931 166.863 86.5129 168.123 89.7326C169.383 92.9524 170.083 94.7722 170.083 95.0522ZM167.003 90.5726C165.743 87.3528 165.043 85.673 165.043 85.393H164.903C164.903 85.533 164.204 87.2129 162.944 90.5726H167.003Z" fill="black"/>
<path d="M178.345 91.9725C178.345 92.9524 177.925 93.7923 177.225 94.4922C176.525 95.1922 175.405 95.4722 174.145 95.4722C172.745 95.4722 171.625 95.3322 170.785 94.9122L170.925 93.6523C172.045 94.0723 173.025 94.3523 174.145 94.3523C175.965 94.3523 176.945 93.6523 176.945 92.2524C176.945 91.5525 176.665 90.9925 175.965 90.7126C175.265 90.4326 174.565 90.2926 173.445 90.2926C173.025 90.2926 172.605 90.2926 172.185 90.2926L172.325 89.0327C172.605 89.0327 173.025 89.0327 173.585 89.0327C175.405 89.0327 176.245 88.4727 176.245 87.2129C176.245 86.0929 175.405 85.533 173.725 85.533C172.605 85.533 171.765 85.673 170.925 86.0929L171.065 84.833C171.765 84.5531 172.885 84.4131 174.285 84.4131C175.405 84.4131 176.105 84.6931 176.665 85.113C177.225 85.533 177.505 86.0929 177.505 86.7929C177.505 87.9128 176.945 88.7527 175.685 89.3127V89.4527C177.645 89.5927 178.345 90.4326 178.345 91.9725Z" fill="black"/>
<path d="M190.107 89.5925C190.107 91.4123 189.547 92.8122 188.567 93.7921C187.587 94.7721 186.327 95.332 184.927 95.332C183.667 95.332 182.547 94.9121 181.567 93.9321C180.587 92.9522 180.027 91.6923 180.027 90.0125C180.027 88.1926 180.587 86.7927 181.567 85.8128C182.547 84.8329 183.807 84.2729 185.207 84.2729C186.467 84.2729 187.587 84.6929 188.567 85.6728C189.547 86.6527 190.107 87.9126 190.107 89.5925ZM188.567 89.7325C188.567 88.3326 188.147 87.2127 187.447 86.5128C186.747 85.8128 185.907 85.3929 184.927 85.3929C184.087 85.3929 183.247 85.8128 182.547 86.6528C181.847 87.4927 181.427 88.6126 181.427 89.8725C181.427 91.2724 181.847 92.3923 182.547 93.0922C183.247 93.7921 184.087 94.2121 185.067 94.2121C185.907 94.2121 186.747 93.7922 187.447 92.9522C188.147 92.1123 188.567 91.1324 188.567 89.7325Z" fill="black"/>
<path d="M199.899 91.8324C199.899 92.9523 199.479 93.6522 198.499 94.3522C197.659 94.9121 196.4 95.1921 194.86 95.1921C194.44 95.1921 193.6 95.1921 192.34 95.1921C192.48 93.5122 192.48 91.6924 192.48 89.5926C192.48 87.6327 192.48 85.9529 192.34 84.553H193.32C193.46 84.553 193.88 84.553 194.44 84.553C195 84.553 195.42 84.553 195.7 84.553C197.939 84.553 199.059 85.3929 199.059 86.9328C199.059 88.1927 198.499 89.0326 197.379 89.3126V89.4526C199.059 89.5926 199.899 90.4325 199.899 91.8324ZM197.799 87.0728C197.799 85.9529 197.099 85.3929 195.56 85.3929C194.86 85.3929 194.16 85.3929 193.74 85.5329C193.74 85.9529 193.74 87.0728 193.74 88.8926C194.02 88.8926 194.3 88.8926 194.58 88.8926C195.7 88.8926 196.4 88.7526 196.959 88.4726C197.519 88.3327 197.799 87.7727 197.799 87.0728ZM198.499 91.9724C198.499 90.5725 197.239 90.0125 194.86 90.0125C194.44 90.0125 194.02 90.0125 193.74 90.0125C193.74 91.4124 193.74 92.8123 193.88 93.9322C194.02 93.9322 194.44 94.0722 195 94.0722C196.26 94.0722 197.239 93.9322 197.799 93.5122C198.219 93.2322 198.499 92.6723 198.499 91.9724Z" fill="black"/>
<path d="M210.962 95.0522H209.282C209.282 94.6322 209.002 93.5123 208.302 91.5525H203.543C202.843 93.5123 202.563 94.6322 202.563 95.0522H200.883C200.883 94.9122 201.583 93.0924 202.983 89.8726C204.383 86.6529 205.082 84.8331 205.082 84.4131H207.042C207.042 84.6931 207.742 86.5129 209.002 89.7326C210.262 92.9524 210.962 94.7722 210.962 95.0522ZM207.742 90.5726C206.482 87.3528 205.782 85.673 205.782 85.393C205.782 85.533 205.082 87.2129 203.823 90.5726H207.742Z" fill="black"/>
<path d="M220.481 95.0522H218.941C218.941 93.0924 219.081 91.4125 219.081 90.0126H214.181C214.181 91.2725 214.181 92.9524 214.321 95.0522H212.781C212.921 93.0924 212.921 91.1325 212.921 89.4527C212.921 87.6328 212.921 85.953 212.781 84.4131H214.181C214.181 85.953 214.041 87.4928 214.041 89.0327H218.941C218.941 87.9128 218.941 86.3729 218.801 84.4131H220.341C220.201 85.953 220.201 87.6328 220.201 89.4527C220.341 91.5525 220.341 93.3723 220.481 95.0522Z" fill="black"/>
<path d="M231.821 95.0522H230.281C230.421 94.0723 230.421 92.5324 230.421 90.4326C230.421 89.4527 230.421 88.3328 230.421 86.9329H230.281C230.141 87.4928 229.021 88.8927 227.202 91.1325C225.522 93.2323 224.542 94.4922 224.542 95.0522H223.422C223.562 93.6523 223.562 91.9725 223.562 90.0126C223.562 88.0528 223.562 86.2329 223.422 84.4131H224.962C224.822 85.953 224.822 87.4928 224.822 89.4527C224.822 90.4326 224.822 91.4125 224.682 92.5324H224.822C225.102 91.9725 226.082 90.5726 227.902 88.3328C229.581 86.3729 230.421 84.973 230.421 84.4131H231.541C231.401 86.2329 231.401 88.0528 231.401 90.0126C231.681 91.9725 231.681 93.6523 231.821 95.0522Z" fill="black"/>
<path d="M241.757 95.052H240.217C240.217 93.7921 240.357 92.2523 240.357 90.4324C239.937 90.4324 239.517 90.4324 239.097 90.4324C238.117 90.4324 237.417 90.7124 236.857 91.2724C236.297 91.8323 235.877 92.8122 235.457 94.4921C235.317 94.7721 235.317 94.912 235.317 95.052H233.777C233.777 94.912 233.917 94.6321 234.057 94.2121C234.617 92.6722 235.037 91.5523 235.317 91.1324C235.597 90.7124 236.157 90.2924 236.857 90.1525V90.0125C235.177 89.7325 234.477 88.7526 234.477 87.2127C234.477 85.2529 235.877 84.2729 238.537 84.2729C238.957 84.2729 239.377 84.2729 239.937 84.2729C240.497 84.2729 240.777 84.2729 240.777 84.2729H241.897C241.757 85.6728 241.757 87.3527 241.757 89.3125C241.617 91.5523 241.757 93.3722 241.757 95.052ZM240.357 89.4525C240.357 88.1926 240.357 86.9327 240.217 85.5328C239.377 85.5328 238.817 85.3929 238.257 85.3929C237.417 85.3929 236.717 85.5328 236.297 85.8128C235.877 86.0928 235.737 86.5128 235.737 87.0727C235.737 88.6126 236.857 89.3125 239.237 89.3125C239.797 89.4525 240.077 89.4525 240.357 89.4525Z" fill="black"/>
</g>
<defs>
<clipPath id="clip0">
<rect width="233.22" height="71.674" fill="white" transform="translate(130.188 23.7981)"/>
</clipPath>
</defs>
</svg>
